# xmcd
#
# Track frame offsets: 
#        182
#        24427
#        37810
#        51415
#        65902
#        80535
#        91850
#        102650
#        113370
#        124462
#        135442
#        147590
#        161132
#        173782
#        188212
#        197662
#        220592
#        235700
#
# Disc length: 3306 seconds
#
# Revision: 5
# Processed by: cddbd v1.5.2PL0 Copyright (c) Steve Scherf et al.
# Submitted via: ExactAudioCopy v1.0b1
#
DISCID=fd0ce812
DTITLE=James Brown - The CD Of JB
DYEAR=1985
DGENRE=Funk
TTITLE0=Doing It To Death
TTITLE1=Super Bad
TTITLE2=Soul Power
TTITLE3=Think
TTITLE4=It's A Man's World
TTITLE5=Try Me (I Need You)
TTITLE6=Bewildered
TTITLE7=Out Of Sight
TTITLE8=I Got You
TTITLE9=Prisoner Of Love
TTITLE10=I Got The Feelin'
TTITLE11=Maybe The Last Time
TTITLE12=Licking Stick Licking Stick
TTITLE13=Mother Popcorn
TTITLE14=Papa's Got A Brand New Bag
TTITLE15=Sex Machine
TTITLE16=The Payback
TTITLE17=Please Please Please
EXTD=
EXTT0=
EXTT1=
EXTT2=
EXTT3=
EXTT4=
EXTT5=
EXTT6=
EXTT7=
EXTT8=
EXTT9=
EXTT10=
EXTT11=
EXTT12=
EXTT13=
EXTT14=
EXTT15=
EXTT16=
EXTT17=
PLAYORDER=
